<svg width="19" height="19" viewBox="0 0 19 19" fill="none" xmlns="http://www.w3.org/2000/svg">
<path d="M18.1245 18.5268L16.7048 5.30012C16.6811 5.08717 16.4919 4.92154 16.2789 4.92154H13.6525V4.11706C13.6525 1.84558 11.8069 0 9.53544 0C7.26396 0 5.41838 1.84558 5.41838 4.11706V4.92154H2.721C2.50805 4.92154 2.31876 5.08717 2.29509 5.30012L0.875418 18.5268C0.851756 18.6451 0.899079 18.7634 0.970063 18.858C1.04105 18.9527 1.15935 19 1.27766 19H17.7222C17.8405 19 17.9589 18.9527 18.0298 18.858C18.1008 18.7634 18.1481 18.6451 18.1245 18.5268ZM13.2266 7.31133C13.4396 7.31133 13.6052 7.47696 13.6052 7.68991C13.6052 7.90286 13.4396 8.06849 13.2266 8.06849C13.0136 8.06849 12.848 7.90286 12.848 7.68991C12.848 7.47696 13.0136 7.31133 13.2266 7.31133ZM6.27019 4.11706C6.27019 2.3188 7.73719 0.851806 9.53544 0.851806C11.3337 0.851806 12.8007 2.3188 12.8007 4.11706V4.92154H6.27019V4.11706ZM5.84428 7.31133C6.05724 7.31133 6.22286 7.47696 6.22286 7.68991C6.22286 7.90286 6.05724 8.06849 5.84428 8.06849C5.63133 8.06849 5.4657 7.90286 5.4657 7.68991C5.4657 7.47696 5.63133 7.31133 5.84428 7.31133ZM1.77455 18.1245L3.09958 5.74969H5.41838V6.53051C4.94516 6.69614 4.6139 7.1457 4.6139 7.66625C4.6139 8.32877 5.15811 8.87298 5.82062 8.87298C6.48314 8.87298 7.02735 8.32877 7.02735 7.66625C7.02735 7.1457 6.69609 6.69614 6.22286 6.53051V5.74969H12.7534V6.53051C12.2801 6.69614 11.9489 7.1457 11.9489 7.66625C11.9489 8.32877 12.4931 8.87298 13.1556 8.87298C13.8181 8.87298 14.3623 8.32877 14.3623 7.66625C14.3623 7.1457 14.0311 6.69614 13.5579 6.53051V5.74969H15.9713L17.2963 18.1245H1.77455Z" fill="white"/>
</svg>
